<?xml version="1.0" standalone="no"?>
<!DOCTYPE svg PUBLIC "-//W3C//DTD SVG 20010904//EN"
 "http://www.w3.org/TR/2001/REC-SVG-20010904/DTD/svg10.dtd">
<svg version="1.0" xmlns="http://www.w3.org/2000/svg"
 width="166.000000pt" height="166.000000pt" viewBox="0 0 166.000000 166.000000"
 preserveAspectRatio="xMidYMid meet">
<metadata>
Created by potrace 1.14, written by Peter Selinger 2001-2017
</metadata>
<g transform="translate(0.000000,166.000000) scale(0.100000,-0.100000)"
fill="#000000" stroke="none">
<path d="M780 1654 c-163 -16 -291 -59 -406 -136 -69 -46 -75 -53 -69 -77 15
-58 70 -176 115 -246 40 -60 52 -73 69 -68 12 3 34 0 49 -6 25 -11 37 -7 113
30 46 23 149 63 229 89 79 27 146 54 149 62 2 7 10 21 19 31 14 16 12 25 -26
100 -44 89 -135 217 -155 217 -7 0 -21 2 -32 4 -11 2 -36 2 -55 0z"/>
<path d="M940 1646 c0 -3 20 -34 45 -69 25 -36 61 -99 81 -140 24 -51 43 -78
57 -83 12 -3 29 -13 38 -20 14 -12 39 -13 160 -3 79 6 145 12 147 13 1 2 -16
23 -38 49 -84 95 -246 194 -380 230 -78 22 -110 28 -110 23z"/>
<path d="M230 1399 c-64 -68 -110 -137 -148 -220 -64 -139 -76 -195 -76 -354
1 -77 5 -150 10 -163 10 -22 12 -21 59 39 68 87 192 206 279 270 96 70 101 93
40 189 -52 81 -80 137 -109 214 l-23 60 -32 -35z"/>
<path d="M1360 1293 c-19 -1 -66 -6 -105 -9 -69 -5 -70 -6 -88 -43 -16 -35
-16 -45 -2 -137 16 -109 19 -274 6 -344 -8 -37 -6 -48 10 -68 10 -14 19 -32
19 -42 0 -13 22 -23 88 -43 84 -25 304 -78 308 -74 1 1 12 34 24 72 28 90 38
259 20 358 -16 91 -61 216 -102 284 l-32 53 -56 -2 c-30 0 -71 -3 -90 -5z"/>
<path d="M930 1216 c-102 -31 -191 -66 -276 -109 -63 -32 -72 -40 -77 -69 -5
-29 0 -38 41 -76 124 -113 421 -284 450 -259 8 6 24 16 35 22 31 15 39 71 34
225 -6 148 -23 250 -42 250 -7 0 -24 9 -38 20 -31 25 -34 24 -127 -4z"/>
<path d="M388 947 c-136 -104 -279 -250 -332 -343 -18 -31 -18 -31 24 -121
l42 -90 86 -27 c149 -45 265 -67 441 -85 l94 -10 29 31 c26 28 33 30 72 25 40
-6 45 -4 78 31 46 50 89 107 123 166 27 46 28 49 12 76 -10 15 -17 34 -17 42
-1 7 -44 34 -98 60 -116 55 -255 146 -336 219 -47 43 -66 54 -95 54 -20 1 -43
4 -51 8 -9 4 -36 -9 -72 -36z"/>
<path d="M1165 583 c-11 -7 -26 -13 -34 -13 -9 0 -33 -32 -56 -72 -22 -39 -69
-104 -103 -145 -35 -41 -62 -76 -60 -78 8 -8 251 16 361 35 62 10 141 28 177
39 63 20 66 22 98 79 38 70 38 72 11 72 -24 0 -225 50 -315 78 -52 16 -64 17
-79 5z"/>
<path d="M206 285 c42 -52 136 -129 207 -170 45 -26 51 -27 90 -15 48 14 212
91 242 113 18 14 15 15 -40 21 -171 18 -312 41 -413 67 -62 16 -116 29 -118
29 -3 0 11 -20 32 -45z"/>
<path d="M1449 305 c-12 -11 -290 -55 -410 -65 -115 -9 -135 -14 -147 -31 -19
-28 -57 -41 -86 -30 -17 7 -32 4 -57 -12 -19 -11 -76 -40 -128 -63 -94 -43
-94 -43 -65 -54 124 -48 331 -57 469 -21 147 39 298 126 399 230 22 22 37 43
35 46 -3 3 -8 3 -10 0z"/>
</g>
</svg>
