<svg width="1900" height="275" viewBox="0 0 1900 275" fill="none" xmlns="http://www.w3.org/2000/svg">
<path d="M1424.5 184.5C1520.88 147.111 1627.36 49.1432 1727.5 23.5C1793.36 6.63508 1900 0 1900 0V275H1470H1167C1167 275 1211.51 267.129 1424.5 184.5Z" fill="#943B27"/>
<path d="M1415.5 230.5C1509.18 186.783 1630.36 91.6432 1730.5 66C1796.36 49.1351 1900 40.5 1900 40.5V275H1469.5H1275C1275 275 1370 251.734 1415.5 230.5Z" fill="#8B3428"/>
<path d="M0 66.5C0 66.5 21 44.4999 68 32C113.621 19.8668 113.405 20 154 20C205 20 230.5 78 347.5 78C444.5 78 497.344 173.792 602.5 201.5C695.832 226.093 826.645 152.899 923 158.5C1020.27 164.154 1034.94 101.086 1127 133C1202 159 1336 275 1336 275H426H0V66.5Z" fill="#903927"/>
<path d="M0 111.5C0 111.5 21 89.5 68 77.0001C113.621 64.8668 113.405 65.0001 154 65.0001C205 65.0001 230.5 123 347.5 123C444.5 123 497.344 218.792 602.5 246.5C695.832 271.093 826.645 197.899 923 203.5C1020.27 209.154 1034.94 146.086 1127 178C1202 204 1264 274.763 1264 274.763H424.5H0V111.5Z" fill="#8B3428"/>
</svg>
